<svg width="15" height="48" viewBox="0 0 15 48" fill="none" xmlns="http://www.w3.org/2000/svg">
<path d="M7.27562 47.0431C7.26199 47.0112 5.68221 43.654 4.09476 39.1233C2.51193 34.5827 0.89688 28.9101 0.88623 24.0282C0.88623 23.502 0.906377 22.9856 0.947688 22.4803C1.38535 17.4571 4.22914 12.1004 6.90735 7.85883C9.59628 3.63409 12.1679 0.589925 12.196 0.555164L12.1968 0.55591C12.751 -0.100746 13.7314 -0.182828 14.3877 0.371447C15.0428 0.926671 15.1256 1.90813 14.571 2.56485C14.571 2.5656 14.4268 2.73485 14.1565 3.07085C13.8859 3.40597 13.4954 3.89921 13.0246 4.51961C12.0825 5.76055 10.8148 7.51136 9.53062 9.52994C6.95179 13.553 4.35213 18.7197 4.04694 22.7357C4.01316 23.1498 3.99573 23.5817 3.99573 24.0281C3.98854 27.6959 5.13561 32.3766 6.45762 36.4063C7.77549 40.4431 9.25013 43.8565 9.83316 45.1554C9.99901 45.527 10.089 45.7176 10.0901 45.7184C10.4557 46.496 10.1221 47.4226 9.34469 47.7893C9.1306 47.8899 8.90587 47.9378 8.68426 47.9378C8.10041 47.9377 7.54051 47.6068 7.27562 47.0431Z" fill="white"/>
</svg>
